<svg xmlns="http://www.w3.org/2000/svg" xmlns:xlink="http://www.w3.org/1999/xlink"><symbol viewBox="0 0 68 42" id="centenary_ar" xmlns="http://www.w3.org/2000/svg"><path d="M47.41 0c6.45 0 12 4.45 12 11.45s-5.53 11.44-12 11.44a12.3 12.3 0 0 1-8.85-3.53 12.34 12.34 0 0 1-8.86 3.53c-5.26 0-9.91-3-11.45-7.85v7.58l-6.05 2V7L8.5 8V3.17L18.25 0v7.86C19.79 3 24.44 0 29.7 0a12.35 12.35 0 0 1 8.86 3.54A12.31 12.31 0 0 1 47.41 0m0 16.69c3.34 0 5.74-2.16 5.74-5.24s-2.4-5.24-5.74-5.24-5.73 2.16-5.73 5.24 2.4 5.24 5.73 5.24m-17.71 0c3.34 0 5.73-2.16 5.73-5.24S33 6.21 29.7 6.21 24 8.37 24 11.45s2.4 5.24 5.74 5.24" fill="#dda700"/><path d="M0 30.92v-3.17h2.47v.52H.57v.78h1.29v.5H.57v.85h1.94v.52zm3.41 0l1.21-1.63-1.13-1.54h.66L5 28.84l.81-1.09h.63l-1.17 1.52 1.22 1.65h-.66l-.89-1.2-.94 1.2zm4.94 0v-2.65h-1.1v-.52H10v.52H8.93v2.65zm2.65 0v-3.17h1.25c.74 0 1.19.41 1.19 1a1 1 0 0 1-.75.95l1 1.21H13l-1-1.14h-.49v1.14zm.57-2.65v1h.69c.35 0 .59-.16.59-.51s-.27-.51-.62-.51zm2.99 2.65L16 27.75h.46l1.43 3.17h-.62l-.23-.55H15.4l-.25.55zm1.07-1.06h1.21l-.6-1.36zm2.89-.52A1.72 1.72 0 1 1 20.24 31a1.63 1.63 0 0 1-1.72-1.66zm2.84 0a1.12 1.12 0 1 0-1.12 1.09 1.07 1.07 0 0 0 1.12-1.09zm1.76 1.58v-3.17h1.26c.73 0 1.19.41 1.19 1a1 1 0 0 1-.75.95l1 1.21h-.68l-1-1.14h-.44v1.14zm.58-2.65v1h.69c.35 0 .58-.16.58-.51s-.27-.51-.61-.51zm3.16-.52h1.08a1.59 1.59 0 1 1 0 3.17h-1.08zm.57.52v2.13h.51a1.07 1.07 0 1 0 0-2.13zm3.44 2.65v-3.17h.58v3.17zm1.94 0v-3.17h.5L35 30v-2.25h.54v3.17h-.49l-1.73-2.21v2.21zm3.76 0L38 27.75h.46l1.44 3.17h-.6l-.24-.55h-1.65l-.25.55zm1.06-1.06h1.21l-.59-1.36zm3.28 1.06v-3.17h1.25c.73 0 1.19.41 1.19 1a1 1 0 0 1-.75.95l1 1.21h-.68l-1-1.14h-.49v1.14zm.57-2.65v1h.69c.35 0 .59-.16.59-.51s-.28-.51-.62-.51zm3.95 2.65v-1.35l-1.34-1.82h.68l1 1.33 1-1.33h.67L46 29.57v1.35zm5.86 0v-1.35L50 27.75h.68l1 1.33 1-1.33h.67l-1.34 1.82v1.35zm2.93 0v-3.17h2.48v.52h-1.9v.78h1.28v.5H54.8v.85h1.93v.52zm3.4 0l1.46-3.17h.46L61 30.92h-.61l-.24-.55h-1.69l-.24.55zm1.07-1.06h1.21l-.59-1.36zM62 30.92v-3.17h1.26c.73 0 1.19.41 1.19 1a1 1 0 0 1-.75.95l1 1.21H64l-1-1.14h-.49v1.14zm.58-2.65v1h.69c.35 0 .58-.16.58-.51s-.27-.51-.61-.51zm3 1.79a1.84 1.84 0 0 0 1.15.39c.46 0 .64-.13.64-.39s-.14-.34-.76-.48-1-.33-1-.94.41-.93 1.24-.93a1.92 1.92 0 0 1 1.06.27v.57a1.73 1.73 0 0 0-1-.33c-.43 0-.64.13-.64.39s.28.36.77.48 1.06.37 1.06 1-.46.91-1.27.91a1.91 1.91 0 0 1-1.15-.33zm-52.44 4.92h.6v.59h-.6zm-1.09 0h.6v.59h-.6zm3.72 5.97h.6v.59h-.6zm1.08 0h.6v.59h-.6zm2.8-2.5a1.37 1.37 0 0 1-.22.81.7.7 0 0 1-.62.29h-.56a.73.73 0 0 1-.6-.26 1 1 0 0 1-.23-.69v-.48h-.68v.48a1 1 0 0 1-.22.7.76.76 0 0 1-.59.25h-.57a.82.82 0 0 1-.42-.09.78.78 0 0 1-.25-.26 1.07 1.07 0 0 1-.14-.35 2.5 2.5 0 0 1 0-.4v-2.17h-.68a7 7 0 0 0-1.07.13 3.07 3.07 0 0 0-.83.31 1.48 1.48 0 0 0-.53.49 1.38 1.38 0 0 0 .18 1.64 1.33 1.33 0 0 0 1 .36 2 2 0 0 0 .74-.14 1.71 1.71 0 0 0 .55-.33 1.47 1.47 0 0 0 .1.54 1.45 1.45 0 0 0 .31.5 1.57 1.57 0 0 0 .48.35 1.38 1.38 0 0 0 .62.13h.76a1.4 1.4 0 0 0 .55-.12.9.9 0 0 0 .42-.37.9.9 0 0 0 .44.36 1.33 1.33 0 0 0 .55.13h.72a1.4 1.4 0 0 0 1.12-.48 2 2 0 0 0 .41-1.33v-1.01h-.67zm-5.81-.36a2.19 2.19 0 0 1-.54.32 1.65 1.65 0 0 1-.65.15.63.63 0 0 1-.48-.18A.61.61 0 0 1 12 38a.83.83 0 0 1 .14-.48 1 1 0 0 1 .39-.31 2.64 2.64 0 0 1 .56-.17 7.21 7.21 0 0 1 .75-.08zm5.95-2.15a.33.33 0 0 1-.19-.29.25.25 0 0 1 .09-.2.48.48 0 0 1 .27-.07.74.74 0 0 1 .23 0h.19v-.4h-.14A1.38 1.38 0 0 0 20 35a.66.66 0 0 0-.51.19.61.61 0 0 0-.19.45.53.53 0 0 0 .06.24.35.35 0 0 0 .16.16h-.3v.38h1.36v-.38h-.3a.78.78 0 0 1-.49-.1zm4.5.52h.6v.59h-.6zm2.27.17h.6v.59h-.6zm1.2 0h.6v.59h-.6zm-.6-.83h.6v.59h-.6zm3.48.65h.6v.59h-.6zm-1.08 0h.6v.59h-.6z"/><path d="M39 38.47a1.46 1.46 0 0 1-.2.85.8.8 0 0 1-.65.26.58.58 0 0 1-.47-.23 1 1 0 0 1-.18-.63v-.59h-.67v.46a1.08 1.08 0 0 1-.22.73.84.84 0 0 1-.67.26.89.89 0 0 1-.78-.35 2 2 0 0 1-.24-1.1h-.67V39a.93.93 0 0 1 0 .29.47.47 0 0 1-.2.22.87.87 0 0 1-.41.08h-1.92a.73.73 0 0 1-.6-.26 1 1 0 0 1-.23-.69v-.48h-.68v.48a1 1 0 0 1-.22.7.75.75 0 0 1-.59.25h-.58a.73.73 0 0 1-.6-.26 1 1 0 0 1-.22-.73v-.48h-.68v.48a1 1 0 0 1-.23.7.73.73 0 0 1-.58.25h-.59a.76.76 0 0 1-.6-.26 1 1 0 0 1-.22-.69v-.48h-.68v.48a1 1 0 0 1-.23.7.75.75 0 0 1-.59.25H23a.82.82 0 0 1-.42-.09.78.78 0 0 1-.25-.26 1.07 1.07 0 0 1-.14-.35 2.5 2.5 0 0 1 0-.4v-4.37h-.67v4.41a2.06 2.06 0 0 0 .39 1.31 1.31 1.31 0 0 0 1.11.5h.75a1.4 1.4 0 0 0 .55-.12 1 1 0 0 0 .43-.37.92.92 0 0 0 .43.36 1.33 1.33 0 0 0 .55.13h.95a1.44 1.44 0 0 0 .55-.12 1 1 0 0 0 .42-.37.92.92 0 0 0 .43.36 1.41 1.41 0 0 0 .56.13h.94a1.4 1.4 0 0 0 .55-.12.9.9 0 0 0 .42-.37 1 1 0 0 0 .44.36 1.33 1.33 0 0 0 .55.13h1.84a1.41 1.41 0 0 0 .67-.15 2.28 2.28 0 0 0 .52-.42 1.25 1.25 0 0 0 .54.44 1.92 1.92 0 0 0 .83.16 1.69 1.69 0 0 0 .67-.11 2.13 2.13 0 0 0 .47-.29 1 1 0 0 0 .45.29 1.87 1.87 0 0 0 .61.11 1.43 1.43 0 0 0 1.13-.47 2 2 0 0 0 .4-1.34v-1.08H39zm1.78-4.39h.67v6.22h-.67zm7.89 3.61a1.45 1.45 0 0 0-.52-.35 1.54 1.54 0 0 0-.61-.12 1.15 1.15 0 0 0-.74.23 1.74 1.74 0 0 0-.5.66 5.73 5.73 0 0 0-.31.81 5.93 5.93 0 0 1-.3.82 3.23 3.23 0 0 1-.61.91 2.06 2.06 0 0 1-1 .52V42a3.21 3.21 0 0 0 1.42-.79 4.43 4.43 0 0 0 1-1.66 2.11 2.11 0 0 0 .18.27 1.84 1.84 0 0 0 .29.26 1.44 1.44 0 0 0 .41.21 1.59 1.59 0 0 0 .5.08 1.25 1.25 0 0 0 .94-.4 1.44 1.44 0 0 0 .37-1 1.83 1.83 0 0 0-.13-.71 1.64 1.64 0 0 0-.39-.57zm-.36 1.76a.72.72 0 0 1-.51.18.76.76 0 0 1-.63-.29 1 1 0 0 1-.25-.69.63.63 0 0 1 .2-.48.69.69 0 0 1 .51-.19.72.72 0 0 1 .4.1.88.88 0 0 1 .26.25 1.17 1.17 0 0 1 .16.34 1.33 1.33 0 0 1 0 .32.63.63 0 0 1-.14.46zm7.27-.29c-.46.11-.81.19-1 .22a1.83 1.83 0 0 1-.77-.45 1 1 0 0 1-.29-.67.88.88 0 0 1 .32-.7 1.21 1.21 0 0 1 .85-.28 3.06 3.06 0 0 1 .88.13 2.71 2.71 0 0 1 .66.32v-.85a2.73 2.73 0 0 0-.7-.23 3.87 3.87 0 0 0-.92-.1 1.88 1.88 0 0 0-1.29.47 1.58 1.58 0 0 0-.51 1.22 1.31 1.31 0 0 0 .26.79 1.47 1.47 0 0 0 .6.52h-1.9a.82.82 0 0 1-.42-.09.78.78 0 0 1-.25-.26 1.07 1.07 0 0 1-.14-.35 2.5 2.5 0 0 1 0-.4v-4.37h-.67v4.41a2.06 2.06 0 0 0 .39 1.31 1.32 1.32 0 0 0 1.11.5h1.6a6.52 6.52 0 0 0 1.34-.16l1.93-.48v-.78z"/></symbol><symbol viewBox="0 0 68 42" id="centenary_en" xmlns="http://www.w3.org/2000/svg"><path d="M0 33.68v-4.59h3.58v.75H.83V31h1.86v.73H.83v1.23h2.8v.76zm4.87 0l1.76-2.37L5 29.09h1l1.16 1.58 1.16-1.58h.92l-1.67 2.19 1.76 2.4h-1l-1.24-1.75-1.29 1.75zm7.13 0v-3.84h-1.6v-.75h4v.75h-1.6v3.84zm3.81 0v-4.59h1.81c1.07 0 1.73.58 1.73 1.46a1.38 1.38 0 0 1-1.09 1.37l1.47 1.76h-1L17.35 32h-.7v1.66zm.84-3.84v1.47h1c.51 0 .85-.23.85-.74s-.39-.73-.89-.73zm4.19 3.84L23 29.09h.66l2.08 4.59h-.94l-.35-.8h-2.4l-.35.8zm1.54-1.53h1.75l-.85-2zm4.16-.77A2.49 2.49 0 1 1 29 33.73a2.35 2.35 0 0 1-2.46-2.35zm4.11 0A1.62 1.62 0 1 0 29 33a1.55 1.55 0 0 0 1.65-1.62zm2.51 2.3v-4.59H35c1.07 0 1.72.58 1.72 1.46a1.37 1.37 0 0 1-1.08 1.37l1.47 1.76h-1L34.7 32H34v1.66zm.84-3.84v1.47h1c.5 0 .85-.23.85-.74s-.4-.73-.9-.73zm4.52-.75h1.57a2.31 2.31 0 1 1 0 4.59h-1.57zm.83.75v3.08h.73a1.55 1.55 0 1 0 0-3.08zm4.93 3.84v-4.59h.84v4.59zm2.72 0v-4.59h.72l2.5 3.21v-3.21h.79v4.59h-.71l-2.51-3.21v3.21zm5.43 0l2.11-4.59h.66l2.08 4.59h-.89l-.35-.8h-2.4l-.35.8zM54 32.15h1.75l-.86-2zm4.67 1.53v-4.59h1.81c1.06 0 1.72.58 1.72 1.46a1.38 1.38 0 0 1-1.08 1.37l1.47 1.76h-1L60.21 32h-.71v1.66zm.83-3.84v1.47h1c.51 0 .85-.23.85-.74s-.39-.73-.89-.73zm5.69 3.84v-2l-1.94-2.63h1L65.63 31 67 29.09h1l-1.94 2.63v2zm-42.71 8.26V40l-1.95-2.64h1l1.39 1.92 1.41-1.92h1L23.34 40v1.95zm4.2 0v-4.59h3.58v.75h-2.75v1.13h1.85V40h-1.85v1.24h2.8v.75zm4.86 0l2.11-4.59h.66l2.08 4.59h-.89l-.34-.79h-2.4l-.36.79zm1.54-1.53h1.75l-.85-2zm4.7 1.53v-4.59h1.81c1.06 0 1.72.59 1.72 1.47a1.39 1.39 0 0 1-1.08 1.37l1.47 1.75h-1l-1.39-1.65h-.71v1.65zm.83-3.84v1.48h1c.51 0 .85-.24.85-.74s-.39-.74-.89-.74zM43 40.7a2.69 2.69 0 0 0 1.66.57c.67 0 .94-.2.94-.57s-.22-.5-1.1-.7-1.53-.48-1.53-1.36.59-1.34 1.79-1.34a2.82 2.82 0 0 1 1.54.38v.83a2.51 2.51 0 0 0-1.55-.51q-.93 0-.93.57c0 .44.4.52 1.13.69s1.52.54 1.52 1.4S45.8 42 44.64 42a2.77 2.77 0 0 1-1.64-.47z"/><path d="M47.21 0c6.41 0 11.92 4.43 11.92 11.4s-5.51 11.41-11.92 11.41a12.24 12.24 0 0 1-8.81-3.53 12.24 12.24 0 0 1-8.81 3.53c-5.23 0-9.86-3-11.39-7.83v7.56l-6 2V6.93L8.5 8V3.16L18.2 0v7.83C19.73 3 24.36 0 29.59 0a12.27 12.27 0 0 1 8.81 3.52A12.27 12.27 0 0 1 47.21 0m0 16.62c3.32 0 5.71-2.15 5.71-5.22s-2.39-5.22-5.71-5.22-5.71 2.16-5.71 5.22 2.39 5.22 5.71 5.22m-17.62 0c3.32 0 5.7-2.15 5.7-5.22s-2.38-5.22-5.7-5.22-5.71 2.16-5.71 5.22 2.39 5.22 5.71 5.22" fill="#dda700"/></symbol><symbol viewBox="0 0 78 36" id="centenary_ru" xmlns="http://www.w3.org/2000/svg"><path d="M54.4 0c7.39 0 13.74 5.17 13.74 13.31S61.79 26.63 54.4 26.63a14.08 14.08 0 0 1-10.17-4.12 14 14 0 0 1-10.16 4.12c-6 0-11.37-3.45-13.13-9.14v8.82L14 28.6V8.09L9.75 9.35V3.69L20.94 0v9.14C22.7 3.45 28 0 34.07 0a14 14 0 0 1 10.16 4.11A14.07 14.07 0 0 1 54.4 0m0 19.41c3.83 0 6.58-2.52 6.58-6.1s-2.75-6.09-6.58-6.09-6.58 2.51-6.58 6.09 2.75 6.1 6.58 6.1m-20.33 0c3.83 0 6.58-2.52 6.58-6.1s-2.75-6.09-6.58-6.09-6.58 2.51-6.58 6.09 2.75 6.1 6.58 6.1" fill="#dda700"/><path d="M.65 34.88v-2.61H0v3.69h.53l2.14-2.62v2.62h.65v-3.69h-.53L.65 34.88zm6.07.51a1.24 1.24 0 0 1-1.35-1.27 1.28 1.28 0 0 1 1.33-1.28 2.18 2.18 0 0 1 1.17.36l.12.07v-.73a3.19 3.19 0 0 0-1.24-.29 1.91 1.91 0 0 0-2 1.94 1.87 1.87 0 0 0 2 1.83A2.73 2.73 0 0 0 8 35.69v-.74l-.09.05a2.21 2.21 0 0 1-1.19.39zm5.16-.12l-.08-.13a3 3 0 0 0-.89-1 1.91 1.91 0 0 0 .44-.73c.15-.4.23-.54.39-.54h.31v-.59H12a1.47 1.47 0 0 0-.36-.05c-.46 0-.69.48-.86 1s-.31.64-.58.64h-.12v-1.59h-.66V36h.65v-1.57h.12c.23 0 .44 0 .89.77l.49.76h.77l-.09-.12c-.19-.27-.25-.4-.37-.57zm2.12-.64c0 .54-.05.75-.5.75h-.2l.1.6h.22c.67 0 1-.42 1-1.22v-1.88h1.54V36h.65v-3.72H14zm7.26-2.4a1.88 1.88 0 0 0-2 1.58H19v-1.53h-.65V36H19v-1.59h.3a2 2 0 1 0 2-2.18zm0 3.16a1.28 1.28 0 1 1 1.3-1.27 1.24 1.24 0 0 1-1.3 1.27zm5.32-1.52a4.4 4.4 0 0 1-.57.05c-.69 0-.83-.23-.83-.59v-1h-.66v1c0 .82.45 1.21 1.38 1.21a4.94 4.94 0 0 0 .68-.06V36h.66v-3.72h-.66zm2.87 1.01v-2.61h-.65v3.69h.53l2.13-2.62v2.62h.66v-3.69h-.53l-2.14 2.61zm3.95-2h1.22v3.08h.65v-3.08h1.21v-.61H33.4v.61zm5.02 1.52h1.44v-.6h-1.44v-.92h1.49v-.61h-2.15v3.69h2.2v-.61h-1.54v-.95zm3.37.23c0 .54 0 .75-.49.75h-.2l.09.6h.22c.68 0 1-.42 1-1.22v-1.88H44V36h.66v-3.72h-2.87zm5.61-.84h-.55v-1.51h-.66V36h1.27a1.08 1.08 0 0 0 1.22-1.09c0-.7-.5-1.12-1.28-1.12zm.07 1.56h-.62v-1h.58c.35 0 .57.19.57.5 0 .15 0 .5-.53.5zm5.02-1.54h-1.82v-1.54h-.65v3.69h.65v-1.54h1.82v1.54h.66v-3.69h-.66v1.54zm5.11-1.53h.65v3.68h-.65zm-1.69 1.51h-.55v-1.51h-.65V36H56a1.07 1.07 0 0 0 1.21-1.09c-.02-.7-.52-1.12-1.3-1.12zm.09 1.56h-.63v-1h.58c.36 0 .57.18.57.5-.01.15-.06.5-.52.5zm7.26-3.08h-.8l-1.06 1.31-1.08-1.31h-.8l1.47 1.78-1.58 1.91h.81l1.18-1.42 1.16 1.42h.8l-1.56-1.91 1.46-1.78zm3.88 2.36c0 .54 0 .75-.5.75h-.2l.1.6h.22c.67 0 1-.42 1-1.22v-1.88h1.54V36h.7v-3.72h-2.86zm5.05-.23h1.45v-.6h-1.45v-.92h1.49v-.61h-2.14v3.69h2.19v-.61h-1.54v-.95zm2.73-2.13v.61h1.21v3.08h.65v-3.08H78v-.61h-3.08z"/></symbol><symbol viewBox="0 0 76 42" id="centenary_zn" xmlns="http://www.w3.org/2000/svg"><path d="M0 34.76V31.2h2.76v.58H.64v.88h1.43v.56H.64v1H2.8v.58zm3.81 0l1.36-1.83L3.9 31.2h.74l.9 1.23.89-1.23h.71l-1.25 1.7 1.36 1.86h-.74l-1-1.35-1 1.35zm5.52 0v-3H8.1v-.56h3.1v.58H10v3zm3.01 0V31.2h1.4c.82 0 1.32.46 1.32 1.14a1.06 1.06 0 0 1-.83 1.06l1.13 1.36h-.76l-1.07-1.28H13v1.28zm.64-3v1.15h.77c.39 0 .65-.18.65-.57s-.3-.58-.69-.58zm3.29 3l1.63-3.56h.51L20 34.76h-.69l-.27-.61h-1.83l-.27.61zm1.2-1.19h1.35L18.15 32zM20.7 33a1.93 1.93 0 1 1 1.92 1.82A1.81 1.81 0 0 1 20.7 33zm3.17 0a1.25 1.25 0 1 0-1.25 1.23A1.2 1.2 0 0 0 23.87 33zm1.97 1.76V31.2h1.41c.82 0 1.32.46 1.32 1.14a1.06 1.06 0 0 1-.83 1.06l1.13 1.36h-.76L27 33.48h-.55v1.28zm.65-3v1.15h.77c.39 0 .65-.18.65-.57s-.3-.58-.69-.58zM30 31.2h1.21a1.79 1.79 0 1 1 0 3.56H30zm.64.58v2.4h.56a1.21 1.21 0 1 0 0-2.4zm3.86 2.98V31.2h.65v3.56zm2.17 0V31.2h.56l1.93 2.49V31.2h.61v3.56h-.55l-1.93-2.49v2.49zm4.2 0l1.63-3.56h.5l1.6 3.56h-.69l-.26-.61h-1.84l-.28.61zm1.19-1.19h1.35L42.75 32zm3.66 1.19V31.2h1.4c.82 0 1.33.46 1.33 1.14a1.07 1.07 0 0 1-.84 1.06l1.14 1.36H48l-1.07-1.28h-.55v1.28zm.64-3v1.15h.77c.39 0 .66-.18.66-.57s-.31-.58-.69-.58zm4.41 3v-1.52l-1.5-2H50l1.07 1.49 1.13-1.53h.74l-1.5 2v1.52zm6.55 0v-1.52l-1.5-2h.76l1.08 1.49 1.08-1.49h.75l-1.5 2v1.52zm3.28 0V31.2h2.77v.58h-2.13v.88h1.44v.56h-1.44v1h2.16v.58zm3.8 0L66 31.2h.51l1.61 3.56h-.69l-.27-.61h-1.82l-.27.61zm1.2-1.19H67L66.28 32zm3.65 1.19V31.2h1.4c.83 0 1.33.46 1.33 1.14a1.06 1.06 0 0 1-.84 1.06l1.14 1.36h-.76l-1.08-1.28h-.54v1.28zm.65-3v1.15h.76c.4 0 .66-.18.66-.57s-.3-.58-.69-.58zm3.39 2.04a2.1 2.1 0 0 0 1.29.44c.52 0 .72-.16.72-.45s-.17-.38-.85-.53-1.18-.38-1.18-1.06.46-1 1.38-1a2.23 2.23 0 0 1 1.19.29v.65a1.88 1.88 0 0 0-1.17-.38q-.72 0-.72.45c0 .34.31.4.87.54s1.18.37 1.18 1.04-.52 1-1.42 1a2.15 2.15 0 0 1-1.29-.36z"/><path d="M53 0c7.2 0 13.39 5 13.39 12.87S60.19 25.74 53 25.74a13.76 13.76 0 0 1-9.9-4 13.74 13.74 0 0 1-9.9 4c-5.88 0-11.08-3.33-12.79-8.84v8.54l-6.76 2.21V7.83L9.5 9V3.56L20.4 0v8.83C22.11 3.33 27.31 0 33.19 0a13.74 13.74 0 0 1 9.9 4A13.76 13.76 0 0 1 53 0m0 18.76c3.73 0 6.41-2.43 6.41-5.89S56.72 7 53 7s-6.41 2.43-6.41 5.89 2.68 5.89 6.41 5.89m-19.8 0c3.73 0 6.41-2.43 6.41-5.89S36.92 7 33.19 7s-6.41 2.43-6.41 5.89 2.68 5.89 6.41 5.89" fill="#dda700"/><path d="M15.74 39.84a4.7 4.7 0 0 0 0 .51h-.67v.26h.8v.25h-.8v.24h1.19v.28h-1.15l.44.16.55.19a2.16 2.16 0 0 0-.1.27l-.66-.26-.6-.22.08-.15h-.94l.2.2a3.25 3.25 0 0 0-.54.19c-.24.09-.48.18-.72.25a1.83 1.83 0 0 0-.19-.24l.61-.19a1.79 1.79 0 0 0 .44-.21H12.5v-.28h1.15v-.24h-.8v-.25h.8v-.26h-.75v-.99h2.87a3.85 3.85 0 0 0-.03.49zm-1.54-1.57v.96h-.32v-.15l-.55.1c-.21 0-.42.09-.66.16a2.92 2.92 0 0 1-.14-.31c.2 0 .42 0 .64-.07l.71-.1v-.38h-1.24v-.25h.53zm-.75.53l-.3.08-.15-.26a1.68 1.68 0 0 1 .33-.07 1.17 1.17 0 0 0 .12.25zm.73 1v-.19h-1v.19zm0 .38V40h-1v.18zm.6.48v-.26H14v.26zm0 .46v-.24H14v.24zM16 38.25v.99h-.33V39l-.51.11a4.92 4.92 0 0 0-.61.15l-.17-.26.64-.09c.25 0 .45-.07.6-.11v-.29h-1.11v-.24H16zm-.53 1.5v-.19h-.97v.19zm0 .38V40h-.97v.18zm-.21-1.35a1 1 0 0 0-.33.07c0-.09-.06-.19-.09-.28a1.63 1.63 0 0 1 .34 0 1.6 1.6 0 0 0 .03.21zm8.49-.46h-3.07v.34h1.62a5.24 5.24 0 0 1-.17.62h-1v2.67h.37v-.38h2.06v.33h.37v-2.64h-1.47l.21-.62h1.69v-.34zm-2.25 1.91v-.69h2.06v.69zm2.06.32v.7H21.5v-.7zm8.31.06H31v-.74h1.09v-.32H31V39h1.29v-.33h-2.36a2 2 0 0 1 .31-.44 3.85 3.85 0 0 1-.46-.14 2.09 2.09 0 0 1-.34.7 4.52 4.52 0 0 1-.68.84.91.91 0 0 1 .37.18 9.43 9.43 0 0 0 .63-.85h.91v.64h-1.24v1h-.75v.32h1.98v1.06h.41v-1.06h1.5v-.32zm-1.2-.74v.74h-.87v-.74zM44.15 39l.31-.18c-.23-.36-.38-.6-.48-.73a1.76 1.76 0 0 0-.3.19 6.91 6.91 0 0 1 .47.72zm2.73 0a1.31 1.31 0 0 1-.08.39c0 .06-.1.08-.2.08h-1c-.16 0-.25-.08-.26-.23V39c.19 0 .45-.1.79-.19l.89-.25a1.07 1.07 0 0 1-.24-.34 2.91 2.91 0 0 1-.64.31l-.77.21v-.62h-.39v1.27a.39.39 0 0 0 .36.45h1.48a.35.35 0 0 0 .3-.11 2.88 2.88 0 0 0 .18-.5 2.1 2.1 0 0 1-.42-.23zm-2.18 1.74l-.35.36v-1.7h-1v.38H44v1.43a.45.45 0 0 1-.16.33 1 1 0 0 1 .24.26c.12-.14.24-.26.35-.37l.4-.34a1.31 1.31 0 0 1-.13-.35zm2.37-.69h-2.13v1.84h.37v-.34h1.37V42h.39v-1.92zm-1.76.64v-.36h1.37v.36zm1.37.29v.39h-1.37V41zm6.61-2.79h-.41v.65h-1.12v.36h1.12v.59h-.98v.34h.98v.71h-1.17v.37a3.15 3.15 0 0 1 .44 0h.73v.8h.41v-3.28c-.01-.26-.01-.43 0-.54zM55 40.76h-.81v-.71h1.07v-.34h-1.07v-.59h1.2v-.36h-1.2v-.26a1.79 1.79 0 0 1 0-.34h-.41v3.77h.39a3.4 3.4 0 0 1 0-.49v-.36H55a2.59 2.59 0 0 1 .44 0v-.37zm6.75-1.02a3.68 3.68 0 0 0-.23-.48 2.38 2.38 0 0 0-.32.16c.07.16.15.32.23.51a2.84 2.84 0 0 1 .18.51 2.5 2.5 0 0 1 .38-.15c-.06-.16-.15-.35-.24-.55z"/><path d="M63.68 41.07a.75.75 0 0 1-.41-.16 2.67 2.67 0 0 1-.05.41c0 .09-.09.14-.21.14h-.22a.21.21 0 0 1-.23-.23v-2.12a6.43 6.43 0 0 1 0-.77h-2v1.73a3.74 3.74 0 0 1-.08.62 1.32 1.32 0 0 1-.24.51 2.08 2.08 0 0 1-.5.47 1.23 1.23 0 0 1 .34.26 3.28 3.28 0 0 0 .6-.8 2.38 2.38 0 0 0 .21-1v-1.48h1.22v2.8c0 .25.17.37.5.37H63a.81.81 0 0 0 .39-.08c.09-.05.17-.26.26-.65z"/></symbol></svg>