<svg xmlns="http://www.w3.org/2000/svg" xmlns:xlink="http://www.w3.org/1999/xlink"><symbol viewBox="0 0 24 24" id="by_arrow" xmlns="http://www.w3.org/2000/svg"><path d="M12 17.41l-8.71-8.7 1.42-1.42 7.29 7.3 7.29-7.3 1.42 1.42-8.71 8.7z"/></symbol><symbol viewBox="0 0 48 48" id="by_arrow-down" xmlns="http://www.w3.org/2000/svg"><path d="M0 9.1v5.6l24 24.2 24-24.2V9.1L24.1 33.3 0 9.1z"/></symbol><symbol viewBox="0 0 24 24" id="by_arrow-down_new" xmlns="http://www.w3.org/2000/svg"><path d="M12 17.41l-8.71-8.7 1.42-1.42 7.29 7.3 7.29-7.3 1.42 1.42-8.71 8.7z"/></symbol><symbol viewBox="0 0 48 48" id="by_arrow-left" xmlns="http://www.w3.org/2000/svg"><path d="M38.9 48h-5.6L9.1 24 33.4 0H39L14.6 23.9 38.9 48z"/></symbol><symbol viewBox="0 0 48 48" id="by_arrow-right" xmlns="http://www.w3.org/2000/svg"><path d="M9.1 48h5.6l24.2-24L14.7 0H9.1l24.2 23.9L9.1 48z"/></symbol><symbol viewBox="0 0 48 48" id="by_arrow-up" xmlns="http://www.w3.org/2000/svg"><path d="M48 38.9v-5.6L24 9.1 0 33.3v5.6l23.9-24.2L48 38.9z"/></symbol><symbol viewBox="0 0 24 24" id="by_arrow-up_new" xmlns="http://www.w3.org/2000/svg"><path d="M19.29 16.71L12 9.41l-7.29 7.3-1.42-1.42L12 6.59l8.71 8.7-1.42 1.42z"/></symbol><symbol viewBox="0 0 24 24" id="by_check" xmlns="http://www.w3.org/2000/svg"><path d="M9.03 19.45l-5.74-5.74 1.42-1.42 4.26 4.26L19.26 5.32l1.48 1.36L9.03 19.45z"/></symbol><symbol viewBox="0 0 24 24" id="by_close" xmlns="http://www.w3.org/2000/svg"><path d="M19.07 6.34l-1.41-1.41L12 10.59 6.34 4.93 4.93 6.34 10.59 12l-5.66 5.66 1.41 1.41L12 13.41l5.66 5.66 1.41-1.41L13.41 12l5.66-5.66z"/></symbol><symbol viewBox="0 0 24 24" id="by_co2" xmlns="http://www.w3.org/2000/svg"><path d="M15.75 21a5 5 0 0 1-4-2.16A6 6 0 0 1 3 13.5a5.8 5.8 0 0 1 1-3.27A4.24 4.24 0 0 1 3 7.5 4.71 4.71 0 0 1 7.88 3a4.91 4.91 0 0 1 4.22 2.27 4.56 4.56 0 0 1 2.52-.77 5.08 5.08 0 0 1 4.88 5.25 4.77 4.77 0 0 1-.1 1A6.4 6.4 0 0 1 21 15c0 3.31-2.36 6-5.25 6zm-3.52-4.26l.39.72a3.64 3.64 0 0 0 3.13 2c2.07 0 3.75-2 3.75-4.5a4.82 4.82 0 0 0-1.44-3.51l-.31-.3.11-.42a4.51 4.51 0 0 0 .14-1A3.58 3.58 0 0 0 14.62 6a3.17 3.17 0 0 0-2.26 1l-.88.89-.37-1.19a3.34 3.34 0 0 0-3.23-2.2 3.21 3.21 0 0 0-3.38 3 2.84 2.84 0 0 0 1 2.11l.53.48-.46.55a4.43 4.43 0 0 0-1 2.86A4.51 4.51 0 0 0 9 18a4.44 4.44 0 0 0 2.54-.79z"/><path d="M8.83 12.59a1.7 1.7 0 0 0 1.24-.49v1a2.26 2.26 0 0 1-1.32.36 2.09 2.09 0 1 1 0-4.16 2.28 2.28 0 0 1 1.32.36v1a1.81 1.81 0 0 0-1.26-.46 1.21 1.21 0 1 0 0 2.41zm1.89-1.21A2.11 2.11 0 0 1 13 9.3a2.09 2.09 0 1 1 0 4.16 2.11 2.11 0 0 1-2.28-2.08zm3.49 0A1.23 1.23 0 1 0 13 12.59a1.18 1.18 0 0 0 1.21-1.21zm1.57 4.12v-.28c.83-.62 1.09-.92 1.09-1.19s-.13-.42-.49-.42a.91.91 0 0 0-.59.21v-.5a1 1 0 0 1 .7-.21.86.86 0 0 1 1 .86c0 .39-.29.71-.75 1h.88v.49z"/></symbol><symbol viewBox="0 0 24 24" id="by_configure" xmlns="http://www.w3.org/2000/svg"><path d="M13 4.18V3h-2v1.18a3 3 0 0 0 0 5.64V21h2V9.82a3 3 0 0 0 0-5.64zM12 8a1 1 0 1 1 1-1 1 1 0 0 1-1 1zm7 5.18V3h-2v10.18a3 3 0 0 0 0 5.64V21h2v-2.18a3 3 0 0 0 0-5.64zM18 17a1 1 0 1 1 1-1 1 1 0 0 1-1 1zm-9-4a3 3 0 0 0-2-2.82V3H5v7.18a3 3 0 0 0 0 5.64V21h2v-5.18A3 3 0 0 0 9 13zm-3 1a1 1 0 1 1 1-1 1 1 0 0 1-1 1z"/></symbol><symbol viewBox="0 0 24 24" id="by_document" xmlns="http://www.w3.org/2000/svg"><path d="M12.41 3H5v18h14V9.59zM7 19V5h4v6h6v8zm6-12.58L15.59 9H13z"/></symbol><symbol viewBox="0 0 24 24" id="by_external_link" xmlns="http://www.w3.org/2000/svg"><path d="M15 19H5V9h5V7H3v14h14v-7h-2v5z"/><path d="M15 3v2h2.59l-8.3 8.29 1.42 1.42L19 6.41V9h2V3h-6z"/></symbol><symbol viewBox="0 0 24 24" id="by_form" xmlns="http://www.w3.org/2000/svg"><path d="M3 5h18v2H3zm0 12h14v2H3zm0-4h16v2H3zm0-4h10v2H3z"/></symbol><symbol viewBox="0 0 24 24" id="by_fuel" xmlns="http://www.w3.org/2000/svg"><path d="M19.5 6v9.75a1.41 1.41 0 0 1-1.5 1.5 1.41 1.41 0 0 1-1.5-1.5v-3C16.5 11 15.91 9 14.25 9h-.75V3h-9v16.5H3V21h12v-1.5h-1.5v-9h.75c.45 0 .75 1.33.75 2.25v3a3 3 0 0 0 6 0V6zM12 4.5V9H6V4.5zm-6 15v-9h6v9z"/></symbol><symbol viewBox="0 0 24 24" id="by_icon-burger" xmlns="http://www.w3.org/2000/svg"><path d="M0 18h24v2H0zm0-7h24v2H0zm0-7h24v2H0z"/></symbol><symbol viewBox="0 0 24 24" id="by_info" xmlns="http://www.w3.org/2000/svg"><path d="M12 21a9 9 0 1 1 9-9 9 9 0 0 1-9 9zm0-16a7 7 0 1 0 7 7 7 7 0 0 0-7-7z"/><circle cx="12" cy="8.25" r="1.25"/><path d="M13 17h-2v-4h-1v-2h3v6z"/></symbol><symbol viewBox="0 0 24 24" id="by_location" xmlns="http://www.w3.org/2000/svg"><path d="M12 21l-.74-.82c-.64-.7-6.26-7-6.26-10.44A6.88 6.88 0 0 1 12 3a6.88 6.88 0 0 1 7 6.73c0 3.44-5.62 9.74-6.26 10.44zm0-16a4.87 4.87 0 0 0-5 4.73c0 1.8 2.82 5.7 5 8.26 2.18-2.56 5-6.46 5-8.26A4.87 4.87 0 0 0 12 5z"/><circle cx="12" cy="9" r="1.25"/></symbol><symbol viewBox="0 0 24 24" id="by_plus" xmlns="http://www.w3.org/2000/svg"><path d="M20.999 11H13V3h-2v8H3.001v2H11v7.999h2V13h7.999v-2z"/></symbol><symbol viewBox="0 0 48 48" id="by_share" xmlns="http://www.w3.org/2000/svg"><path d="M31.79 6.838l1.06 1.06-17.252 17.254-1.061-1.06z"/><path d="M33.882 41.233l-1.06 1.06L15.567 25.04l1.06-1.06zM39.7 7.3c0 4-3.3 7.3-7.3 7.3s-7.3-3.3-7.3-7.3S28.3 0 32.4 0s7.3 3.3 7.3 7.3"/><path d="M39.7 40.7c0 4-3.3 7.3-7.3 7.3s-7.3-3.3-7.3-7.3 3.3-7.3 7.3-7.3c4-.1 7.3 3.2 7.3 7.3M22.9 23.9c0 4-3.3 7.3-7.3 7.3s-7.3-3.3-7.3-7.3 3.3-7.3 7.3-7.3c4.1 0 7.3 3.2 7.3 7.3"/></symbol><symbol viewBox="0 0 24 24" id="by_sign_in" xmlns="http://www.w3.org/2000/svg"><path d="M7 3v5h2V5h10v14H9v-3H7v5h14V3H7z"/><path d="M11.29 14.79l1.42 1.42 4.24-4.25-4.24-4.24-1.42 1.42L13.16 11H3v2h10.09l-1.8 1.79z"/></symbol><symbol viewBox="0 0 24 24" id="by_social_facebook" xmlns="http://www.w3.org/2000/svg"><path d="M21 12.05A9 9 0 1 0 10.59 21v-6.34H8.31v-2.61h2.28v-2A3.18 3.18 0 0 1 14 6.57a13.55 13.55 0 0 1 2 .18V9h-1.13a1.29 1.29 0 0 0-1.46 1.41v1.68h2.49l-.4 2.61h-2.09V21A9 9 0 0 0 21 12.05z"/></symbol><symbol viewBox="0 0 24 24" id="by_social_instagram" xmlns="http://www.w3.org/2000/svg"><path d="M12 4.62h3.64a5.12 5.12 0 0 1 1.67.38 2.77 2.77 0 0 1 1 .68 2.77 2.77 0 0 1 .68 1 5.12 5.12 0 0 1 .31 1.67c0 1 .05 1.24.05 3.64s0 2.69-.05 3.64a5.12 5.12 0 0 1-.3 1.68A3.08 3.08 0 0 1 17.31 19a5.12 5.12 0 0 1-1.67.31c-1 0-1.24.05-3.64.05s-2.69 0-3.64-.05A5.12 5.12 0 0 1 6.69 19a2.77 2.77 0 0 1-1-.68 2.77 2.77 0 0 1-.68-1 5.12 5.12 0 0 1-.31-1.67V8.37A5.12 5.12 0 0 1 5 6.69a2.77 2.77 0 0 1 .68-1 2.77 2.77 0 0 1 1-.68 5.12 5.12 0 0 1 1.67-.31h3.64M12 3H8.29a6.9 6.9 0 0 0-2.19.42A4.64 4.64 0 0 0 3.47 6.1a6.9 6.9 0 0 0-.42 2.19v7.42a6.9 6.9 0 0 0 .42 2.19 4.64 4.64 0 0 0 2.63 2.63 6.9 6.9 0 0 0 2.19.47c1 0 1.27.05 3.71.05s2.75 0 3.71-.05a6.9 6.9 0 0 0 2.19-.42 4.64 4.64 0 0 0 2.63-2.63 6.9 6.9 0 0 0 .47-2.24c0-1 .05-1.27.05-3.71S21 9.25 21 8.29a6.9 6.9 0 0 0-.42-2.19 4.64 4.64 0 0 0-2.68-2.63 6.9 6.9 0 0 0-2.19-.42H12z"/><path d="M12 7.38A4.62 4.62 0 1 0 16.62 12 4.62 4.62 0 0 0 12 7.38zM12 15a3 3 0 1 1 3-3 3 3 0 0 1-3 3z"/><circle cx="16.8" cy="7.2" r="1.08"/></symbol><symbol viewBox="0 0 24 24" id="by_social_pinterest" xmlns="http://www.w3.org/2000/svg"><path d="M12 3a9 9 0 0 0-3.28 17.38 8.61 8.61 0 0 1 0-2.58c.16-.7 1.06-4.47 1.06-4.47A3.25 3.25 0 0 1 9.54 12c0-1.25.72-2.19 1.63-2.19a1.13 1.13 0 0 1 1.13 1.27 18.52 18.52 0 0 1-.74 3 1.3 1.3 0 0 0 1.33 1.62c1.6 0 2.83-1.68 2.83-4.12A3.56 3.56 0 0 0 12 7.91a3.89 3.89 0 0 0-4.1 3.91 3.51 3.51 0 0 0 .67 2 .29.29 0 0 1 .06.26l-.25 1c0 .16-.13.2-.3.12a4 4 0 0 1-1.83-3.49c0-2.84 2.07-5.44 5.95-5.44a5.28 5.28 0 0 1 5.55 5.2c0 3.1-2 5.59-4.67 5.59a2.43 2.43 0 0 1-2.07-1l-.56 2.14a10.27 10.27 0 0 1-1.11 2.4A9 9 0 1 0 12 3z"/></symbol><symbol viewBox="0 0 24 24" id="by_social_twitter" xmlns="http://www.w3.org/2000/svg"><path d="M8.66 19.31a10.43 10.43 0 0 0 10.51-10.5v-.48A7.43 7.43 0 0 0 21 6.42a7.47 7.47 0 0 1-2.12.58 3.69 3.69 0 0 0 1.62-2 7.28 7.28 0 0 1-2.34.89 3.7 3.7 0 0 0-6.39 2.53 3.86 3.86 0 0 0 .09.84 10.46 10.46 0 0 1-7.61-3.9 3.77 3.77 0 0 0-.5 1.86 3.67 3.67 0 0 0 1.65 3.07 3.67 3.67 0 0 1-1.68-.46v.05a3.7 3.7 0 0 0 3 3.62 3.93 3.93 0 0 1-1 .13 3.84 3.84 0 0 1-.72-.07 3.69 3.69 0 0 0 3.45 2.57 7.44 7.44 0 0 1-4.59 1.58 8.49 8.49 0 0 1-.86-.05 10.49 10.49 0 0 0 5.66 1.65"/></symbol><symbol viewBox="0 0 24 24" id="by_social_wechat" xmlns="http://www.w3.org/2000/svg"><path class="azst0" d="M17.4 13.5c-.4 0-.7-.3-.7-.7 0-.4.3-.7.7-.7s.7.3.7.7c0 .3-.3.7-.7.7m-3.6 0c-.4 0-.7-.3-.7-.7 0-.4.3-.7.7-.7.4 0 .7.3.7.7-.1.4-.4.7-.7.7m5.3 4.1c1.1-.8 1.8-2 1.9-3.4 0-2.5-2.4-4.5-5.4-4.5s-5.4 2-5.4 4.5 2.4 4.5 5.4 4.5c.6 0 1.2-.1 1.8-.2h.2c.1 0 .2 0 .3.1l1.2.7h.1c.1 0 .2-.1.2-.2V19s-.1-.6-.2-.9V18c-.2-.2-.1-.3-.1-.4"/><path class="azst0" d="M11.7 9.2c-.4 0-.8-.3-.8-.8 0-.4.3-.8.8-.8.4 0 .8.3.8.8-.1.4-.4.8-.8.8m-4.4 0c-.4 0-.8-.3-.8-.8 0-.4.3-.8.8-.8s.8.4.8.8-.3.8-.8.8m2.2-4.5C5.9 4.7 3 7.2 3 10.1c0 1.7.9 3.2 2.2 4.1.1.1.2.2.2.4v.1l-.3 1.1v.2c0 .1.1.2.2.2h.1l1.4-.8c.1-.1.2-.1.3-.1h.2c.7.2 1.4.3 2.1.3h.4c-.1-.4-.2-.9-.2-1.3 0-2.7 2.7-5 5.9-5h.5c-.5-2.6-3.2-4.6-6.5-4.6"/></symbol><symbol viewBox="0 0 24 24" id="by_social_weibo" xmlns="http://www.w3.org/2000/svg"><path class="bast0" d="M16.5 11.7c-.2-.1-.4-.1-.3-.5.3-.6.3-1.2 0-1.8-.6-.8-2.2-.8-4 0 0 0-.6.2-.4-.2.3-.7.2-1.5-.2-2.1-1-1-3.6 0-5.9 2.3C4 11.1 3 13 3 14.5c0 3 3.8 4.8 7.6 4.8 4.9 0 8.2-2.8 8.2-5.1-.2-1.2-1.1-2.2-2.3-2.5zm-6 6.5c-3 .3-5.6-1-5.7-3s2.1-3.8 5-4.1 5.6 1 5.7 3-2 3.8-5 4.1zm9.3-11.9c-1.1-1.3-2.9-1.8-4.5-1.5-.4.1-.6.4-.5.8.1.4.4.6.8.5 1.8-.4 3.6.8 4 2.6.1.6.1 1.2-.1 1.7-.1.4.1.7.4.9.4.1.8-.1.9-.4.5-1.6.1-3.4-1-4.6z"/><path class="bast0" d="M17.7 10.6c.3.1.6-.1.7-.4.5-1.2-.2-2.5-1.4-2.9-.4-.1-.8-.2-1.2-.1-.3.1-.5.4-.5.7.1.3.4.5.7.5.4-.1.8 0 1.1.4.3.3.4.7.2 1.1-.1.2.1.6.4.7zm-6.8 2c-1.4-.4-2.9.3-3.6 1.6-.6 1.1-.1 2.4 1 3 .1.1.3.1.5.2 1.5.5 3.1-.2 3.9-1.6.5-1.1 0-2.4-1.1-3-.4-.1-.6-.1-.7-.2zm-1.1 3.3c-.3.5-.9.7-1.4.5-.4-.2-.6-.7-.4-1l.1-.1c.3-.4.8-.6 1.3-.5.4.2.6.6.4 1v.1zm1-1.2c-.1.2-.3.3-.5.2-.2-.1-.2-.2-.2-.4v-.1c.1-.2.3-.3.5-.2.2.1.2.3.2.5-.1 0-.1 0 0 0z"/></symbol><symbol viewBox="0 0 24 24" id="by_social_youku" xmlns="http://www.w3.org/2000/svg"><path class="bbst0" d="M8.1 7.6c-.9 0-1.7.7-1.8 1.6-.1.9.6 1.8 1.6 1.8h.3c.9-.1 1.6-.9 1.6-1.8-.2-.8-.8-1.5-1.7-1.6zm0 2.6c-.5 0-.9-.4-.9-.9s.4-.9.9-.9c.5.1.9.5.9.9 0 .5-.4.9-.9.9zM6.3 8.3c0-.1.1-.2.1-.3 0-.2-.2-.4-.4-.4-.1 0-.3.1-.3.2l-1 .9-1-.9c0-.1-.1-.2-.3-.2-.2 0-.4.2-.4.4 0 .1 0 .2.1.3l1.2 1.2v1.1c0 .2.2.4.4.4s.4-.2.4-.4V9.5l1.2-1.2zm7.1-.2c0-.2-.3-.4-.5-.4s-.3.2-.4.4v1.5c0 .2-.1.3-.2.5-.1.1-.3.2-.5.2h-.1c-.2 0-.3-.1-.5-.2-.1-.1-.2-.3-.2-.5V8.1c0-.2-.2-.4-.4-.4s-.4.2-.4.4v1.5c0 .8.7 1.5 1.5 1.5h.1c.8 0 1.5-.7 1.5-1.5V8.1h.1zm7.6 0c0-.2-.2-.4-.4-.4s-.4.2-.4.4v1.5c0 .2-.1.3-.2.5-.1.1-.3.2-.5.2h-.1c-.2 0-.3-.1-.5-.2-.1-.1-.2-.3-.2-.5V8.1c0-.2-.3-.4-.5-.4s-.3.2-.4.4v1.5c0 .8.7 1.4 1.5 1.5h.1c.8 0 1.5-.6 1.6-1.5V8.1zm-3.8 2.2l-.9-1 1-1c.1-.1.1-.2.1-.3 0-.2-.2-.4-.4-.4-.1 0-.2 0-.3.1l-1.8 1.9V8c0-.2-.2-.4-.4-.4-.3 0-.5.2-.5.4v2.6c0 .2.2.4.4.4.1 0 .2 0 .3-.1l.9-1 .9 1c.1.1.2.1.3.1.2 0 .4-.2.4-.4.1-.1.1-.2 0-.3zm-9.1 2c0-.1-.1-.2-.2-.2s-.2.1-.2.2c-.1.8-.5 1.4-1.2 1.9-.1.1-.1.2 0 .3 0 0 .1.1.2.1h.1c.2-.2.4-.3.5-.6v2.8c0 .1.1.2.2.2s.2-.1.2-.2v-3.4c.2-.4.3-.8.4-1.1z"/><path class="bbst0" d="M11.4 13.3H9.6v-1.1c0-.1-.1-.2-.2-.2s-.2.1-.2.2v1.1H8.1c-.1 0-.2.1-.2.2s.1.2.2.2h1c-.1 1-.5 2-1.1 2.8-.1.1-.1.2 0 .3h.1c.1 0 .1 0 .1-.1.7-.9 1.1-2 1.2-3.1h.4V16c0 .2.1.4.2.6.1.1.3.2.5.2.4 0 .8-.3.8-.8v-.9c0-.1-.1-.2-.2-.2s-.2.1-.2.2v.8c0 .2-.2.4-.4.4-.1 0-.2 0-.3-.1-.1-.1-.1-.2-.1-.3v-2.4h1.1c.1 0 .2-.1.2-.2.2.1.1 0 0 0z"/><path class="bbst0" d="M10.3 12.4c.2.1.3.2.4.4 0 .1.1.2.2.2s.1-.1.2-.2c0-.1 0-.2-.6-.7-.1-.1-.2 0-.3 0 0 .2 0 .3.1.3zm6.8 1.5h-.8v-.8h.7c.1 0 .2-.1.2-.2s-.1-.2-.2-.2h-.6v-.4c0-.1 0-.2-.2-.2-.1 0-.2 0-.2.2v.5h-.3v-.2c0-.1-.1-.2-.2-.2s-.2.1-.2.2c-.1.3-.2.5-.4.7-.1.1-.1.2 0 .3l.1.1c.1 0 .1 0 .1-.1.1-.1.2-.2.3-.4h.6v.8h-.8c-.1 0-.2 0-.2.1s.1.2.2.2h1.9c.1 0 .2-.1.2-.2 0-.2-.1-.3-.2-.2zm-2.3-.6h-.7v-.6h.5c.1 0 .2-.1.2-.2s-.1-.2-.2-.2h-2c-.1 0-.2.1-.2.2s.1.2.2.2h.5v.6h-.7v2.8c0 .1 0 .3.1.4.3.3.6.4 1 .3.4 0 .8-.1 1.1-.3.1-.1.1-.2.1-.4l.1-2.8zm-.7 1.5v-1.1h.3v1.4c-.1 0-.2 0-.3-.1 0-.1-.1-.1 0-.2zm-.7-2.1h.2v.6h-.2v-.6zm-.6 1h.3v1.1c0 .1 0 .2-.1.2 0 .1-.2.1-.3.1l.1-1.4zm0 1.7c.2 0 .4-.1.6-.2.1-.1.2-.3.1-.5v-1h.2v1c0 .2 0 .3.1.5s.3.2.6.2v.2h-1.6v-.2zm1.5.9c-.1.1-.3.2-.8.2s-.7-.1-.7-.2v-.2h1.6v.1l-.1.1zm2.1-1.8H16c-.5 0-.9.4-.9.9v.6c0 .5.4.9.9.9h.4c.5 0 .9-.4.9-.9v-.6c0-.5-.4-.9-.9-.9zm.5 1.5c0 .3-.2.5-.5.5H16c-.3 0-.5-.2-.5-.5v-.6c0-.3.2-.5.5-.5h.4c.3 0 .5.2.5.5v.6z"/></symbol><symbol viewBox="0 0 24 24" id="by_social_youtube" xmlns="http://www.w3.org/2000/svg"><path d="M20.62 7.66A2.25 2.25 0 0 0 19 6.05a54.61 54.61 0 0 0-7-.37 54.61 54.61 0 0 0-7 .37 2.25 2.25 0 0 0-1.62 1.61A23.47 23.47 0 0 0 3 12a23.47 23.47 0 0 0 .38 4.36A2.24 2.24 0 0 0 5 18a53.19 53.19 0 0 0 7 .38 53.19 53.19 0 0 0 7-.38 2.24 2.24 0 0 0 1.59-1.6A23.47 23.47 0 0 0 21 12a23.47 23.47 0 0 0-.38-4.34zm-10.46 7V9.34l4.7 2.66z"/></symbol></svg>